<?xml version="1.0" encoding="UTF-8"?>
<svg version="1.1" xmlns="http://www.w3.org/2000/svg" width="1200" height="1200">
<path d="M0 0 C396 0 792 0 1200 0 C1200 396 1200 792 1200 1200 C804 1200 408 1200 0 1200 C0 804 0 408 0 0 Z " fill="#E23744" transform="translate(0,0)"/>
<path d="M0 0 C0.76892578 -0.020625 1.53785156 -0.04125 2.33007812 -0.0625 C9.90872588 -0.11366387 16.12034009 1.73959949 21.9375 6.75 C22.65421875 7.3378125 23.3709375 7.925625 24.109375 8.53125 C30.52938616 16.93036234 30.72305972 26.25070603 30.4375 36.4375 C30.41945313 37.67564453 30.40140625 38.91378906 30.3828125 40.18945312 C30.33615581 43.21047365 30.27070983 46.2298031 30.1875 49.25 C30.56769287 48.60135986 30.94788574 47.95271973 31.33959961 47.28442383 C43.21786124 27.21886485 60.00033889 6.90227956 83.515625 0.62890625 C87.03434101 0.12990705 90.51634399 0.06581416 94.0625 0.0625 C95.08537109 0.04413086 95.08537109 0.04413086 96.12890625 0.02539062 C104.25124377 0.00218395 111.73978933 2.25018525 117.85546875 7.75 C125.30323227 15.69428109 125.74125826 24.97868942 125.6875 35.4375 C125.68218262 37.32879639 125.68218262 37.32879639 125.67675781 39.25830078 C125.45389899 52.31815049 123.3296721 64.93694636 120.85888672 77.74951172 C119.84204215 83.05115443 118.92117501 88.36855739 118 93.6875 C117.7510498 95.09841919 117.7510498 95.09841919 117.49707031 96.5378418 C116.59995534 101.66231298 115.82457585 106.77441573 115.1875 111.9375 C114.37962935 118.38629202 113.12296116 124.68132133 111.7956543 131.03759766 C110.05147729 139.56342623 108.75763201 148.14852417 107.49462891 156.75708008 C107.33784668 157.81822021 107.18106445 158.87936035 107.01953125 159.97265625 C106.88264893 160.91890869 106.7457666 161.86516113 106.60473633 162.84008789 C106.1875 165.25 106.1875 165.25 105.1875 168.25 C87.3675 168.25 69.5475 168.25 51.1875 168.25 C51.1875 161.99788543 51.42250898 156.4430081 52.39453125 150.359375 C52.58226357 149.13141457 52.58226357 149.13141457 52.77378845 147.87864685 C53.03981263 146.14369096 53.30883672 144.40919269 53.58068848 142.67514038 C54.00496186 139.96834414 54.42109225 137.26040731 54.83496094 134.55200195 C55.37585853 131.01489968 55.91925277 127.4782005 56.46533203 123.94189453 C58.43051807 111.19791264 60.23824487 98.47979166 61.48486328 85.64428711 C61.88107528 81.68763504 62.39897439 77.87769261 63.3125 74 C64.74080289 67.60664423 64.74070294 60.75826992 64.1875 54.25 C61.86247119 51.92497119 61.24091735 51.8828955 58.0625 51.75 C52.29552317 51.91582361 49.25432794 54.37123346 45.1875 58.25 C44.10662109 59.25353516 44.10662109 59.25353516 43.00390625 60.27734375 C28.69607814 74.78354729 23.67086938 93.5315653 21.33276367 113.16650391 C20.40782744 120.91590185 19.15892106 128.56449612 17.6328125 136.21850586 C15.6314877 146.89325508 15.1432181 157.2592418 14.1875 168.25 C-5.6125 168.25 -25.4125 168.25 -45.8125 168.25 C-44.660293 158.45624047 -43.47756221 149.12309742 -41.59326172 139.5234375 C-40.01219482 131.15657983 -39.00994425 122.68616619 -37.875 114.25 C-36.24644532 102.25358643 -34.56366121 90.29468674 -32.4375 78.375 C-29.50357384 64.86990955 -29.50357384 64.86990955 -32.8125 52.25 C-36.60560056 51.23483408 -40.33693324 51.5346587 -43.8671875 53.24609375 C-61.67644095 65.869922 -69.18157113 85.50779716 -72.8125 106.25 C-73.61303016 111.22182596 -74.34298238 116.20340989 -75.0625 121.1875 C-75.73447 125.80729378 -76.5126103 130.40063424 -77.3125 135 C-79.1027961 146.04015931 -80.42524883 157.15199063 -81.8125 168.25 C-101.2825 168.25 -120.7525 168.25 -140.8125 168.25 C-140.18415797 162.59492171 -139.51751667 157.36489813 -138.40625 151.84375 C-136.65693483 142.86079467 -135.47283955 133.82464262 -134.3125 124.75 C-132.98363734 114.35739232 -131.48435839 104.06072062 -129.48632812 93.77441406 C-128.63519924 89.32263996 -127.93339828 84.86392038 -127.3125 80.375 C-127.19140869 79.50101563 -127.07031738 78.62703125 -126.94555664 77.7265625 C-126.56049895 74.90197963 -126.18582921 72.07615499 -125.8125 69.25 C-125.68343262 68.29963867 -125.55436523 67.34927734 -125.42138672 66.37011719 C-122.7443669 46.39364464 -121.72933928 26.36779115 -120.8125 6.25 C-119.89138428 6.1998877 -118.97026855 6.14977539 -118.02124023 6.09814453 C-114.52632268 5.9051857 -111.03178141 5.70693668 -107.53735352 5.50537109 C-106.03942171 5.41999426 -104.54137612 5.33658583 -103.04321289 5.25537109 C-93.98856826 4.7629735 -85.11666617 3.9453584 -76.13696289 2.65576172 C-71.97574834 2.14787169 -67.99739334 2.10316164 -63.8125 2.25 C-63.39972095 36.94566704 -63.39972095 36.94566704 -65.8125 51.25 C-65.36261719 50.39019531 -64.91273438 49.53039062 -64.44921875 48.64453125 C-59.54502645 39.53154629 -53.82545313 31.84034893 -46.8125 24.25 C-46.35439941 23.74807129 -45.89629883 23.24614258 -45.42431641 22.72900391 C-33.10690974 9.3606987 -18.42471173 0.12171568 0 0 Z " fill="#FEFDFD" transform="translate(538.8125,509.75)"/>
<path d="M0 0 C13.7488278 11.78756852 21.98624036 29.60288712 23.41186523 47.57910156 C23.52747729 50.59766399 23.56722475 53.6042282 23.5625 56.625 C23.56088867 57.71127686 23.55927734 58.79755371 23.55761719 59.91674805 C23.40421569 70.19540038 21.8220315 79.83522295 19.1875 89.75 C18.89875 90.85214844 18.61 91.95429687 18.3125 93.08984375 C14.41832855 106.04144074 7.70625538 118.29664177 -0.8125 128.75 C-1.48796875 129.58917969 -2.1634375 130.42835938 -2.859375 131.29296875 C-14.73551404 145.27127109 -30.98863484 155.23462083 -48.8125 159.75 C-49.54082031 159.95238281 -50.26914063 160.15476562 -51.01953125 160.36328125 C-70.76027632 164.93318602 -92.47431194 162.26951469 -109.8125 151.75 C-125.28820999 141.59094522 -134.35085569 126.74763061 -139.12109375 109.1640625 C-144.93592412 80.4512843 -138.90353169 51.59215987 -123.8125 26.75 C-121.64632721 23.58869446 -119.30760589 20.65661604 -116.8125 17.75 C-116.12285156 16.92757812 -115.43320312 16.10515625 -114.72265625 15.2578125 C-103.82100733 2.65098475 -89.75074385 -7.09497425 -73.8125 -12.25 C-72.94625 -12.54777344 -72.08 -12.84554688 -71.1875 -13.15234375 C-46.80592686 -20.18798387 -19.95919327 -15.30478606 0 0 Z " fill="#FEFDFD" transform="translate(1102.8125,523.25)"/>
<path d="M0 0 C14.26004178 12.03707614 21.79663358 29.01995624 23.5703125 47.421875 C25.43615324 78.53716149 18.01161075 107.25794417 -2.76855469 130.94824219 C-17.05585463 146.82633406 -37.47498206 158.90057983 -59.06396484 160.63330078 C-80.55450218 161.68502152 -99.84471646 157.88924589 -116.58203125 143.58203125 C-131.2395183 129.82481212 -137.77252073 110.84378125 -138.65625 91.1875 C-139.45468818 62.59580895 -130.7138252 35.80914852 -111.4296875 14.421875 C-110.68203125 13.58011719 -109.934375 12.73835937 -109.1640625 11.87109375 C-81.86728897 -17.18821979 -32.5122304 -25.54667958 0 0 Z " fill="#FEFDFD" transform="translate(371.4296875,524.578125)"/>
<path d="M0 0 C10.77927986 8.36832982 16.28034258 16.82737862 18.5546875 30.28125 C20.35790576 45.33970423 18.59158359 60.17418005 16.6875 75.125 C16.58080994 75.96400848 16.47411987 76.80301697 16.36419678 77.66744995 C15.19655901 86.74904008 13.8946167 95.80087779 12.43359375 104.83984375 C11.16812226 112.68506602 10.16632642 120.52873197 9.375 128.4375 C9.25382813 129.56736328 9.13265625 130.69722656 9.0078125 131.86132812 C7.94330307 142.25765116 7.52412008 152.51759843 7 163 C-10.82 163 -28.64 163 -47 163 C-46.01 157.06 -45.02 151.12 -44 145 C-44 143.02 -44 141.04 -44 139 C-44.38929688 139.4846875 -44.77859375 139.969375 -45.1796875 140.46875 C-56.34054912 153.84121093 -70.82069369 161.98289126 -88 165 C-102.54635514 166.02808613 -116.42096149 166.37400122 -128.1640625 156.66796875 C-128.76992188 156.11753906 -129.37578125 155.56710937 -130 155 C-130.60585938 154.45988281 -131.21171875 153.91976562 -131.8359375 153.36328125 C-140.19545447 144.94900761 -143.99710674 132.13309003 -144.25 120.5 C-144.0090033 104.6424169 -138.8821548 91.03447189 -127.8984375 79.60546875 C-116.28922123 69.16969079 -102.21041687 63.09626806 -87 60 C-86.04867187 59.79375 -85.09734375 59.5875 -84.1171875 59.375 C-67.26606068 56.33419516 -47.4297017 55.81167315 -31 61 C-31.0602713 57.95629957 -31.14739957 54.91732588 -31.25 51.875 C-31.26417969 51.0190625 -31.27835938 50.163125 -31.29296875 49.28125 C-31.50596835 43.74326032 -32.25522298 40.34898749 -36 36 C-37.9254997 34.32793028 -37.9254997 34.32793028 -40 33.1875 C-40.66 32.78917969 -41.32 32.39085937 -42 31.98046875 C-53.60678766 26.29042246 -71.78105563 30.00018477 -83.39941406 33.78076172 C-90.18383419 36.10339116 -96.97578807 38.45810748 -103.37109375 41.71875 C-106 43 -106 43 -109 43 C-110.49510501 38.85974386 -111.96813412 34.71195357 -113.4375 30.5625 C-113.85837891 29.39783203 -114.27925781 28.23316406 -114.71289062 27.03320312 C-116.97484531 20.60925183 -118.59954638 14.80771155 -119 8 C-85.36949729 -8.94445746 -33.78103395 -24.04382771 0 0 Z " fill="#FEFCFD" transform="translate(813,516)"/>
<path d="M0 0 C44.55 0 89.1 0 135 0 C135 31 135 31 129.4375 38.4375 C127.33016208 40.01124127 125.18754137 41.5397954 123 43 C121.06927333 44.93798813 121.06927333 44.93798813 119.5 46.9375 C116.49933482 50.45527011 113.39211058 53.85903387 110.25 57.25 C109.73381104 57.8073584 109.21762207 58.3647168 108.68579102 58.93896484 C107.6364758 60.07185383 106.58707786 61.2046662 105.53759766 62.33740234 C103.16291894 64.90513211 100.7995771 67.4831814 98.4375 70.0625 C97.98576416 70.55548584 97.53402832 71.04847168 97.06860352 71.55639648 C94.83039188 73.99950073 92.59409962 76.44432882 90.359375 78.890625 C85.19044606 84.54319641 79.98605811 90.15951807 74.75 95.75 C69.14233349 101.74294902 63.65780527 107.80581305 58.40454102 114.11303711 C57.61104248 115.06573486 56.81754395 116.01843262 56 117 C57.1873877 116.96970703 58.37477539 116.93941406 59.59814453 116.90820312 C103.0290098 115.808593 103.0290098 115.808593 121 116 C120.03810247 122.71064982 118.95561113 129.36439173 117.5625 136 C116.26361921 142.30617298 115.28925049 148.62372598 114.40234375 155 C114.26630737 155.96550781 114.130271 156.93101562 113.9901123 157.92578125 C113.65817999 160.283595 113.32818417 162.64166214 113 165 C112.43660888 164.99907821 111.87321775 164.99815641 111.29275417 164.99720669 C97.51791396 164.97502162 83.74307693 164.95858963 69.96822262 164.94818783 C63.30652543 164.94298714 56.64484467 164.93594104 49.9831543 164.92456055 C43.54461605 164.91363111 37.10609022 164.907702 30.66754341 164.90512276 C28.22099169 164.90328653 25.77444059 164.89970113 23.32789421 164.89426994 C6.1455446 164.84268765 6.1455446 164.84268765 -11.00291443 165.77857971 C-15.66831056 166.12325234 -20.32516823 166.08747086 -25 166 C-27.42644574 137.51992638 -27.42644574 137.51992638 -22.26953125 130.0234375 C-19.44274188 126.80113854 -16.22978897 124.09946869 -12.84228516 121.48388672 C-10.03460228 119.2224109 -7.74001675 116.5832053 -5.375 113.875 C-1.59440707 109.73963002 2.19708528 105.61484877 6 101.5 C9.84241815 97.34159758 13.67655262 93.17585153 17.5 89 C21.26451921 84.89000063 25.03395152 80.78460879 28.8125 76.6875 C29.30113525 76.15761475 29.78977051 75.62772949 30.29321289 75.08178711 C33.08243723 72.06189198 35.88335277 69.05343023 38.6953125 66.0546875 C39.31817139 65.38993408 39.94103027 64.72518066 40.58276367 64.0402832 C41.78455256 62.75876526 42.98775299 61.47856899 44.19262695 60.19995117 C44.746521 59.60931885 45.30041504 59.01868652 45.87109375 58.41015625 C46.35505615 57.89590088 46.83901855 57.38164551 47.33764648 56.85180664 C49.63060274 54.29752948 51.80257414 51.63691103 54 49 C34.2 49 14.4 49 -6 49 C-6 40.01144641 -6 40.01144641 -5.1953125 35.56640625 C-5.02386719 34.58607422 -4.85242188 33.60574219 -4.67578125 32.59570312 C-4.49402344 31.59474609 -4.31226562 30.59378906 -4.125 29.5625 C-2.35235397 19.72103188 -1.17275889 9.96845059 0 0 Z " fill="#FEFDFD" transform="translate(99,514)"/>
<path d="M0 0 C0.13793479 6.50879799 -0.34487081 12.63548121 -1.3125 19.06640625 C-1.44567627 19.98590561 -1.57885254 20.90540497 -1.71606445 21.85276794 C-2.13807538 24.75692066 -2.56888196 27.65968676 -3 30.5625 C-3.28964759 32.54483647 -3.57871567 34.52725771 -3.8671875 36.50976562 C-4.5703595 41.34104218 -5.28544003 46.17034022 -6 51 C6.21 51 18.42 51 31 51 C29.875 64.5 29.875 64.5 28.80859375 71.171875 C28.50779907 73.07598145 28.50779907 73.07598145 28.20092773 75.01855469 C27.94899658 76.57993164 27.69706543 78.14130859 27.4375 79.75 C26.633125 84.7825 25.82875 89.815 25 95 C12.46 95 -0.08 95 -13 95 C-13.33 99.62 -13.66 104.24 -14 109 C-14.43568888 112.70551715 -14.89591742 116.39226546 -15.41015625 120.0859375 C-15.68069493 122.10932738 -15.95086594 124.13276645 -16.22070312 126.15625 C-16.63992217 129.26527436 -17.06233042 132.37377194 -17.49145508 135.48144531 C-21.55284102 155.32479362 -21.55284102 155.32479362 -18.64868164 174.39233398 C-17.04425468 176.25701221 -17.04425468 176.25701221 -14.25 176.49609375 C-3.26680469 176.29807941 5.32578137 174.10095164 15 169 C15.66 169 16.32 169 17 169 C16.16590525 174.05405836 15.32966784 179.10775579 14.49145508 184.16113281 C14.20668774 185.87978555 13.92250303 187.59853493 13.63891602 189.31738281 C13.2308675 191.78997105 12.82071536 194.26220256 12.41015625 196.734375 C12.28407486 197.50118591 12.15799347 198.26799683 12.02809143 199.05804443 C11.69770367 201.04078673 11.34982854 203.02059527 11 205 C10.88897446 205.70006165 10.77794891 206.40012329 10.66355896 207.12139893 C10 209 10 209 6.71875 210.81640625 C5.31965024 211.41542152 3.91280159 211.99655733 2.5 212.5625 C1.76386475 212.86768555 1.02772949 213.17287109 0.26928711 213.48730469 C-1.81399227 214.34224297 -3.9051295 215.17396728 -6 216 C-6.81339844 216.33386719 -7.62679687 216.66773438 -8.46484375 217.01171875 C-24.21966313 222.90807689 -45.64255805 225.16320526 -61.49609375 219.03515625 C-69.58359872 214.98458462 -75.15168557 208.54494329 -78 200 C-84.02462067 171.26385967 -75.64215296 137.78573287 -70.99247742 109.28152466 C-70.87676895 108.56971039 -70.76106049 107.85789612 -70.6418457 107.12451172 C-70.54168655 106.51759491 -70.4415274 105.9106781 -70.33833313 105.28536987 C-69.83201355 101.86528649 -69.42883258 98.43066065 -69 95 C-74.61 95 -80.22 95 -86 95 C-85.34423011 80.57306239 -83.74893529 66.33246971 -82 52 C-75.4 51.34 -68.8 50.68 -62 50 C-61.63390625 47.89238281 -61.2678125 45.78476562 -60.890625 43.61328125 C-60.49589195 41.55849847 -60.0831074 39.5081201 -59.66845703 37.45727539 C-59.39193113 36.03995915 -59.13406041 34.6188614 -58.89599609 33.19458008 C-56.90476231 21.40003143 -56.90476231 21.40003143 -52.31152344 18.02392578 C-49.23129026 16.7331935 -46.23646888 15.81177791 -43 15 C-41.71605131 14.52610457 -40.4381318 14.03494653 -39.171875 13.515625 C-38.04265625 13.09796875 -36.9134375 12.6803125 -35.75 12.25 C-34.40740742 11.75299479 -33.06497066 11.25556852 -31.72265625 10.7578125 C-30.98934082 10.48614258 -30.25602539 10.21447266 -29.50048828 9.93457031 C-26.57724369 8.84199266 -23.66168572 7.73002227 -20.74609375 6.6171875 C-19.66295898 6.2056543 -18.57982422 5.79412109 -17.46386719 5.37011719 C-15.30296635 4.54891046 -13.14342425 3.72411822 -10.98535156 2.89550781 C-9.49793457 2.33234863 -9.49793457 2.33234863 -7.98046875 1.7578125 C-7.09254639 1.4189502 -6.20462402 1.08008789 -5.28979492 0.73095703 C-3 0 -3 0 0 0 Z " fill="#FEFDFD" transform="translate(933,462)"/>
<path d="M0 0 C5.85541885 3.24875121 9.02518918 7.72707152 11 14 C14.41158059 28.58567743 13.23315247 46.04492674 8 60 C7.62617187 61.0725 7.25234375 62.145 6.8671875 63.25 C3.89019003 71.13608602 -0.15714552 78.73053121 -7.3125 83.5625 C-12.08237236 85.42194177 -15.9556819 86.02348483 -21 85 C-27.20767396 82.1423087 -29.5347362 76.43926837 -31.95922852 70.39746094 C-33.70939748 64.68426569 -33.69875119 59.18304595 -33.5625 53.25 C-33.54590332 52.02152344 -33.52930664 50.79304687 -33.51220703 49.52734375 C-33.07154239 32.22954413 -28.96236122 15.34363276 -16 3 C-11.47389788 -1.02320188 -5.75525419 -1.11885361 0 0 Z " fill="#E23946" transform="translate(1053,555)"/>
<path d="M0 0 C5.74853467 2.87426734 9.35529972 6.83497518 11.58203125 12.83984375 C13.54575315 18.95392174 13.53465889 25.00079649 13.5 31.375 C13.49355469 32.61000244 13.48710937 33.84500488 13.48046875 35.11743164 C13.15608628 51.52328844 9.81461824 67.46669118 -1.70703125 79.83203125 C-6.62685021 84.15399879 -11.01512513 85.61727187 -17.46875 85.41796875 C-22.01125586 84.66789448 -24.31628833 82.65774916 -27 79 C-35.27392922 66.21110941 -33.67111307 47.07611396 -30.86376953 32.72729492 C-27.94493815 20.17282087 -22.48541243 9.47387021 -12.6875 1 C-8.45265183 -0.57575746 -4.45492592 -0.64356875 0 0 Z " fill="#E23946" transform="translate(323,555)"/>
<path d="M0 0 C-0.36972303 14.88975489 -7.29028226 28.19569935 -17.9765625 38.3984375 C-27.11234846 45.62946499 -36.47555345 48.23424957 -48 47 C-54.10968185 45.17136795 -59.41804188 41.93229336 -62.99609375 36.5703125 C-65.43974608 30.31380188 -65.31077677 22.83058052 -63.14453125 16.5 C-61.94020791 14.39551689 -60.66237443 12.7634921 -59 11 C-58.41863281 10.37609375 -57.83726562 9.7521875 -57.23828125 9.109375 C-52.41571582 4.45310493 -47.36760013 1.95548214 -41 0 C-40.2884375 -0.22558594 -39.576875 -0.45117188 -38.84375 -0.68359375 C-26.78269543 -3.76256014 -11.96850045 -3.07447718 0 0 Z " fill="#E23A46" transform="translate(778,603)"/>
<path d="M0 0 C0.33 0 0.66 0 1 0 C1 5.94 1 11.88 1 18 C-5.27 18 -11.54 18 -18 18 C-16 16 -16 16 -12.6875 14.1875 C-6.98608126 10.99897268 -2.08841424 6.26524271 0 0 Z " fill="#000000" transform="translate(1199,1182)"/>
<path d="M0 0 C1.26660973 1.8999146 2.48265955 3.83537229 3.625 5.8125 C7.5414886 11.06883997 12.68385366 15.02620427 19 17 C19 17.33 19 17.66 19 18 C12.73 18 6.46 18 0 18 C0 12.06 0 6.12 0 0 Z " fill="#000000" transform="translate(0,1182)"/>
<path d="M0 0 C6.27 0 12.54 0 19 0 C19 5.94 19 11.88 19 18 C17.73339027 16.1000854 16.51734045 14.16462771 15.375 12.1875 C11.4585114 6.93116003 6.31614634 2.97379573 0 1 C0 0.67 0 0.34 0 0 Z " fill="#000000" transform="translate(1181,0)"/>
<path d="M0 0 C6.27 0 12.54 0 19 0 C17 2 17 2 13.6875 3.8125 C7.60697263 7.21304441 3.79849049 12.30226426 0 18 C0 12.06 0 6.12 0 0 Z " fill="#000000" transform="translate(0,0)"/>
</svg>
